<svg xmlns="http://www.w3.org/2000/svg" class="home-blob" viewBox="0 0 550 591"><mask id="a" mask-type="alpha"><path d="M263 47.178a24 24 0 0 1 24 0l214.157 123.644a23.998 23.998 0 0 1 12 20.784v247.288a23.998 23.998 0 0 1-12 20.784L287 583.322a24 24 0 0 1-24 0L48.843 459.678a24 24 0 0 1-12-20.784V191.606a24 24 0 0 1 12-20.784L263 47.178Z"/></mask><g mask="url(#a)"><path d="M263 47.178a24 24 0 0 1 24 0l214.157 123.644a23.998 23.998 0 0 1 12 20.784v247.288a23.998 23.998 0 0 1-12 20.784L287 583.322a24 24 0 0 1-24 0L48.843 459.678a24 24 0 0 1-12-20.784V191.606a24 24 0 0 1 12-20.784L263 47.178Z"/><path fill="url(#b)" d="M37 0h476v630H37z"/></g><path fill="url(#c)" d="M37 0h476v300H37z"/><defs><pattern id="b" width="1" height="1" patternContentUnits="objectBoundingBox"><use href="#d" transform="matrix(.00143 0 0 .00108 .04 0)"/></pattern><pattern id="c" width="1" height="1" patternContentUnits="objectBoundingBox"><use href="#d" transform="matrix(.00143 0 0 .00227 .04 0)"/></pattern><image id="d" width="640" height="925" href="/assets/img/perfil.png"/></defs></svg>